<?xml version="1.0" encoding="UTF-8" standalone="no"?>
<!-- Created with Inkscape (http://www.inkscape.org/) -->
<svg
   xmlns:dc="http://purl.org/dc/elements/1.1/"
   xmlns:cc="http://creativecommons.org/ns#"
   xmlns:rdf="http://www.w3.org/1999/02/22-rdf-syntax-ns#"
   xmlns:svg="http://www.w3.org/2000/svg"
   xmlns="http://www.w3.org/2000/svg"
   xmlns:xlink="http://www.w3.org/1999/xlink"
   xmlns:sodipodi="http://sodipodi.sourceforge.net/DTD/sodipodi-0.dtd"
   xmlns:inkscape="http://www.inkscape.org/namespaces/inkscape"
   width="100%"
   height="100%"
   viewbox="0 0 265 115"
   id="svg2"
   sodipodi:version="0.32"
   inkscape:version="0.46"
   sodipodi:docname="hydra.svg"
   inkscape:output_extension="org.inkscape.output.svg.inkscape"
   version="1.0">
  <defs
     id="defs4">
    <linearGradient
       id="linearGradient3249">
      <stop
         style="stop-color:#402dd7;stop-opacity:1;"
         offset="0"
         id="stop3251" />
      <stop
         style="stop-color:#19d728;stop-opacity:1;"
         offset="1"
         id="stop3253" />
    </linearGradient>
    <linearGradient
       id="linearGradient3239">
      <stop
         style="stop-color:#f98828;stop-opacity:1;"
         offset="0"
         id="stop3241" />
      <stop
         style="stop-color:#000000;stop-opacity:1;"
         offset="1"
         id="stop3243" />
    </linearGradient>
    <linearGradient
       id="linearGradient3229">
      <stop
         style="stop-color:#ffffff;stop-opacity:1;"
         offset="0"
         id="stop3231" />
      <stop
         style="stop-color:#e0d3d3;stop-opacity:1;"
         offset="1"
         id="stop3233" />
    </linearGradient>
    <linearGradient
       id="linearGradient3219">
      <stop
         style="stop-color:#ebdbab;stop-opacity:1;"
         offset="0"
         id="stop3221" />
      <stop
         style="stop-color:#f1c85f;stop-opacity:1;"
         offset="1"
         id="stop3223" />
    </linearGradient>
    <linearGradient
       id="linearGradient3209">
      <stop
         style="stop-color:#e1662e;stop-opacity:1;"
         offset="0"
         id="stop3211" />
      <stop
         style="stop-color:#9a5111;stop-opacity:1;"
         offset="1"
         id="stop3213" />
    </linearGradient>
    <linearGradient
       id="linearGradient3199">
      <stop
         style="stop-color:#ff0000;stop-opacity:1;"
         offset="0"
         id="stop3201" />
      <stop
         style="stop-color:#ffe500;stop-opacity:1;"
         offset="1"
         id="stop3203" />
    </linearGradient>
    <linearGradient
       id="linearGradient3169">
      <stop
         style="stop-color:#3bc800;stop-opacity:1;"
         offset="0"
         id="stop3171" />
      <stop
         id="stop3175"
         offset="0.71432018"
         style="stop-color:#709e34;stop-opacity:1;" />
      <stop
         style="stop-color:#00a761;stop-opacity:1;"
         offset="1"
         id="stop3173" />
    </linearGradient>
    <inkscape:perspective
       sodipodi:type="inkscape:persp3d"
       inkscape:vp_x="0 : 526.18109 : 1"
       inkscape:vp_y="0 : 1000 : 0"
       inkscape:vp_z="744.09448 : 526.18109 : 1"
       inkscape:persp3d-origin="372.04724 : 350.78739 : 1"
       id="perspective10" />
    <radialGradient
       inkscape:collect="always"
       xlink:href="#linearGradient3169"
       id="radialGradient3161"
       cx="325.7641"
       cy="395.94788"
       fx="325.7641"
       fy="395.94788"
       r="386.16449"
       gradientTransform="matrix(0.971245,4.3132574e-2,-2.6922766e-2,0.6062379,20.027375,141.85824)"
       gradientUnits="userSpaceOnUse" />
    <radialGradient
       inkscape:collect="always"
       xlink:href="#linearGradient3199"
       id="radialGradient3205"
       cx="355.9613"
       cy="387.06659"
       fx="355.9613"
       fy="387.06659"
       r="30.979553"
       gradientTransform="matrix(1,0,0,1.3686234,-9.0978343,-139.62938)"
       gradientUnits="userSpaceOnUse" />
    <radialGradient
       inkscape:collect="always"
       xlink:href="#linearGradient3209"
       id="radialGradient3215"
       cx="396.20828"
       cy="438.03134"
       fx="396.20828"
       fy="438.03134"
       r="44.368706"
       gradientTransform="matrix(0.9746264,-0.2238377,0.1620175,0.7054509,-65.542355,207.52951)"
       gradientUnits="userSpaceOnUse" />
    <radialGradient
       inkscape:collect="always"
       xlink:href="#linearGradient3219"
       id="radialGradient3225"
       cx="542.22168"
       cy="507.04904"
       fx="542.22168"
       fy="507.04904"
       r="125.90451"
       gradientTransform="matrix(1,0,0,0.8702258,5.5519297,44.519506)"
       gradientUnits="userSpaceOnUse" />
    <radialGradient
       inkscape:collect="always"
       xlink:href="#linearGradient3229"
       id="radialGradient3235"
       cx="554.75739"
       cy="502.53931"
       fx="554.75739"
       fy="502.53931"
       r="53.119862"
       gradientTransform="matrix(1,0,0,1.0490663,5.5519297,-45.940118)"
       gradientUnits="userSpaceOnUse" />
    <radialGradient
       inkscape:collect="always"
       xlink:href="#linearGradient3239"
       id="radialGradient3245"
       cx="548.73859"
       cy="410.93018"
       fx="548.73859"
       fy="410.93018"
       r="20.575235"
       gradientTransform="matrix(1,0,0,0.9132834,5.5519297,14.352052)"
       gradientUnits="userSpaceOnUse" />
    <radialGradient
       inkscape:collect="always"
       xlink:href="#linearGradient3249"
       id="radialGradient3255"
       cx="538.79944"
       cy="415.54221"
       fx="538.79944"
       fy="415.54221"
       r="3.0058949"
       gradientTransform="matrix(1,0,0,0.702968,5.5519297,102.14695)"
       gradientUnits="userSpaceOnUse" />
  </defs>
  <sodipodi:namedview
     id="base"
     pagecolor="#ffffff"
     bordercolor="#666666"
     borderopacity="1.0"
     gridtolerance="10000"
     guidetolerance="10"
     objecttolerance="10"
     inkscape:pageopacity="0.0"
     inkscape:pageshadow="2"
     inkscape:zoom="3.4769552"
     inkscape:cx="132.44346"
     inkscape:cy="57.661902"
     inkscape:document-units="px"
     inkscape:current-layer="layer1"
     showgrid="false"
     inkscape:window-width="1022"
     inkscape:window-height="715"
     inkscape:window-x="0"
     inkscape:window-y="0" />
  <metadata
     id="metadata7">
    <rdf:RDF>
      <cc:Work
         rdf:about="">
        <dc:format>image/svg+xml</dc:format>
        <dc:type
           rdf:resource="http://purl.org/dc/dcmitype/StillImage" />
      </cc:Work>
    </rdf:RDF>
  </metadata>
  <g
     inkscape:label="Layer 1"
     inkscape:groupmode="layer"
     id="layer1"
     transform="translate(-479.22196,-480.00814)">
    <g
       id="g2416"
       transform="matrix(0.3297118,0,0,0.3297118,498.76739,399.04397)">
      <path
         sodipodi:nodetypes="csssssssssssc"
         id="path3207"
         d="M 343.06838,411.54265 C 343.07722,417.5955 348.41431,420.29943 354.85436,425.74083 C 359.88359,429.99019 366.46309,431.02892 369.61193,431.76374 C 379.72543,434.12391 386.38227,430.19481 398.43533,435.67002 C 406.85179,439.49326 409.02711,441.83662 416.28124,442.73798 C 427.78674,444.1676 425.9313,454.08855 433.16808,450.47965 C 441.90729,446.12149 443.90004,447.93745 435.67302,442.78356 C 433.68607,441.53881 424.46765,435.21654 420.17741,430.75805 C 415.61661,426.0184 404.77262,423.4239 399.75186,420.27861 C 394.27868,416.84989 384.5664,413.90303 380.79406,412.41386 C 373.04776,409.35592 371.77484,404.51572 366.90389,403.8805 C 361.47539,403.17257 359.41475,401.88966 354.25239,404.5167 C 348.58047,407.40305 345.45929,404.39004 343.06838,411.54265 z"
         style="fill:url(#radialGradient3215);fill-opacity:1;fill-rule:evenodd;stroke:#000000;stroke-width:1px;stroke-linecap:butt;stroke-linejoin:miter;stroke-opacity:1" />
      <path
         sodipodi:nodetypes="cssssszsssssssssssssssssssssssssssssssssssssssssssssssssssssssssssz"
         id="path2383"
         d="M 101.69371,501.9255 C 96.622574,520.03932 42.105688,516.7673 61.784355,548.92907 C 84.530842,586.10472 112.8613,527.3952 117.79135,512.69958 C 124.83519,491.70313 163.11141,475.64381 172.58592,474.04157 C 195.73891,470.12615 204.24244,464.0247 230.36494,455.73639 C 269.03314,443.4675 263.47004,471.81859 269.95945,481.33911 C 274.37983,487.8242 241.82605,530.32137 208.24452,527.04987 C 174.663,523.77836 170.30329,568.10263 198.17101,579.48488 C 229.95802,592.46791 312.29423,565.43107 323.46436,567.62844 C 335.33541,569.96369 365.05027,571.7264 370.20045,573.01394 C 388.0511,577.4766 417.32401,595.24109 430.67677,577.4374 C 447.90858,554.46166 459.97926,558.08165 482.85714,552.36218 C 490.94121,550.34117 516.92416,555.87894 525.71429,558.07647 C 543.79028,562.59547 572.43565,573.01549 590.3759,576.09655 C 633.85277,583.56328 648.42521,582.69643 684.59891,573.65301 C 710.03835,567.29314 743.60894,489.20367 743.60894,462.76346 C 743.60894,449.54846 711.96042,525.99087 688.57143,543.79075 C 666.09801,560.89385 632.58809,553.50088 625.71429,555.21933 C 609.92076,559.16771 589.48456,556.13246 580,546.6479 C 573.57482,540.22271 543.97315,537.64119 534.28571,535.21933 C 515.807,530.59965 507.12753,520.93361 485.71429,520.93361 C 466.06947,520.93361 443.67957,541.19163 421.40356,546.76063 C 406.07826,550.59196 346.72156,549.25152 335.23096,542.36835 C 323.74036,535.48518 222.41052,561.9571 218.36141,557.43962 C 208.40519,546.33175 261.00713,541.41306 278.46457,526.1933 C 291.1063,515.17197 294.13755,507.75449 301.1388,485.09548 C 305.58417,470.70839 302.84634,452.35678 291.42857,446.6479 C 286.65426,444.26075 335.98937,447.59085 337.20521,422.24038 C 338.14054,402.73848 358.22601,412.91325 333.84562,400.39244 C 314.69363,390.55674 318.9536,447.93204 280.66085,416.55525 C 276.73884,413.3416 269.45284,395.88782 268.57143,392.36218 C 265.33609,379.42084 286.50565,364.3072 300,360.93361 C 328.28298,353.86287 319.3393,336.46959 342.04263,317.55013 C 367.73469,296.14006 448.99752,312.74307 466.84256,286.03067 C 478.30747,268.86874 485.95679,244.37583 449.83737,248.04384 C 418.52206,251.22398 403.35343,257.63159 400.18589,273.80694 C 395.88372,295.7764 352.00163,286.76908 339.67529,296.06347 C 329.6098,303.65312 310.28277,313.4579 303.95984,326.82334 C 292.066,351.9646 257.56712,358.09083 242.3308,332.53763 C 231.66274,314.64598 236.44206,318.96994 211.42857,283.79075 C 197.74999,264.55308 138.03429,311.5847 116.07163,284.13138 C 100.71588,264.9367 84.996534,262.87954 58.928774,249.84566 C 31.677913,236.22023 15.824843,262.00113 10.60064,285.51005 C 7.5811567,299.09772 27.65917,312.8217 37.054163,313.18004 C 64.381174,314.22233 79.220874,292.21947 92.237556,300.69628 C 129.23447,324.78965 180.34391,292.58885 197.17593,299.87901 C 210.36542,305.59154 209.76241,329.87065 222.85714,352.36218 C 230.83022,366.05676 239.95629,401.49663 230.10711,403.95893 C 200.11351,411.45733 141.81466,359.11521 117.14286,352.36218 C 92.27127,345.55447 61.964397,351.84282 54.285714,355.21933 C 27.854912,366.84161 29.764453,378.79552 2.25861e-15,378.07647 C -34.105329,377.25256 -71.958937,371.74159 -54.285714,429.50504 C -42.900081,466.71803 -7.4353126,431.46751 -8.5714286,409.50504 C -9.6171129,389.29073 32.632473,390.79275 51.428571,383.79075 C 65.610535,378.50762 71.384382,369.29635 97.186894,372.23406 C 120.65434,374.90592 138.09903,377.60814 148.65552,395.71587 C 157.65593,411.15443 155.32557,414.17947 145.71429,423.79075 C 137.2874,432.21764 109.13882,438.07647 97.142857,438.07647 C 78.778942,438.07647 56.789274,447.4781 37.142857,452.36218 C 9.2259475,459.30229 8.7807809,477.86712 -8.5714286,495.21933 C -20.131125,506.77902 -42.178673,517.53051 -48.247036,529.66724 C -57.178708,547.53058 -40.742866,580.31916 -22.857143,578.07647 C 28.293505,571.6627 -6.9627831,525.33396 19.122775,502.45962 C 45.708128,479.14701 67.166717,469.22376 94.461159,457.26196 C 110.13085,450.39471 134.07129,447.17424 150.72679,447.17424 C 164.28728,447.17424 188.09926,428.9901 200.08095,430.58849 C 238.44166,435.70594 106.76485,483.81168 101.69371,501.9255 z"
         style="fill:url(#radialGradient3161);fill-opacity:1;fill-rule:evenodd;stroke:#000000;stroke-width:1px;stroke-linecap:butt;stroke-linejoin:miter;stroke-opacity:1" />
      <path
         sodipodi:nodetypes="csssssssssssssssssssssc"
         id="path3197"
         d="M 342.07183,405.9166 C 337.83004,403.79864 326.83822,393.47058 322.63952,387.87231 C 313.99615,376.34783 314.33147,380.83177 317.08743,367.05198 C 319.45129,355.23265 317.71865,362.63676 319.86347,371.21605 C 321.22726,376.67121 326.97657,381.27819 329.57963,386.48429 C 332.89671,393.11846 330.96765,371.69316 330.96765,364.27593 C 330.96765,355.7731 331.58821,351.48991 329.57963,343.4556 C 327.35083,334.54042 341.40749,357.39516 343.45985,361.49989 C 345.28637,365.15292 345.91917,350.51685 344.84787,346.23164 C 343.28438,339.97767 350.73028,334.79714 354.56403,330.9634 C 361.25347,324.27396 355.95205,329.52816 355.95205,339.29153 C 355.95205,343.29766 354.56403,354.41771 354.56403,355.9478 C 354.56403,364.13334 366.56435,338.75461 374.15324,335.68673 C 376.37882,334.78702 371.58874,348.63925 368.44425,351.78373 C 365.84636,354.38163 362.60519,366.15485 361.19036,368.98451 C 358.83421,373.6968 353.73745,379.26346 353.17601,379.54418 C 350.90319,380.68059 373.41352,360.5781 377.71374,359.61718 C 379.23517,359.2772 370.20253,366.68648 365.57003,374.035 C 360.93753,381.38352 358.30197,390.55951 356.8251,392.03638 C 354.36351,394.49798 365.71245,387.28822 370.57245,388.96683 C 375.37885,390.62693 361.91848,392.90645 364.28019,405.9166 C 365.06416,410.23534 353.75095,406.15475 351.78799,410.08067 C 350.25708,413.14248 349.89883,412.17821 342.07183,405.9166 z"
         style="fill:url(#radialGradient3205);fill-opacity:1;fill-rule:evenodd;stroke:#000000;stroke-width:1px;stroke-linecap:butt;stroke-linejoin:miter;stroke-opacity:1" />
      <path
         sodipodi:nodetypes="csssssssssssssssssssssssssssssssssssssssssssssssssssssssssssssssc"
         id="path3217"
         d="M 528.121,431.28231 C 525.5993,432.21918 518.71614,427.7616 507.7648,429.53412 C 496.81346,431.30663 485.92627,434.58704 482.9608,434.11563 C 475.31224,432.89975 466.80431,435.04519 457.4891,434.05836 C 455.33703,433.83037 447.01618,437.81243 440.00293,435.61819 C 431.52862,432.96682 431.40495,430.33594 424.73468,437.00621 C 419.91872,441.82217 424.05573,452.06934 427.83977,452.94712 C 429.84069,453.41128 437.50303,451.82295 440.00293,450.88643 C 447.52492,448.06854 450.70869,444.50142 458.04722,446.33605 C 463.83249,447.78237 469.30842,447.8787 476.14878,449.38388 C 481.42177,450.54417 488.50396,448.09079 496.91185,446.72237 C 504.82661,445.43421 507.90984,445.83766 516.40143,446.39332 C 523.32998,446.8467 525.56052,446.33396 526.06032,452.27446 C 526.68178,459.66101 527.04198,466.72998 528.83636,470.31875 C 530.69718,474.04038 538.17159,478.60165 541.32856,482.81095 C 543.49672,485.70183 546.85618,487.46739 549.6567,489.75106 C 561.5033,499.4113 543.8273,503.89095 537.49354,508.51071 C 530.73799,513.43811 525.38753,518.29221 526.83295,525.22425 C 529.15845,536.37704 524.43107,530.62333 528.83636,536.94382 C 532.70524,542.4947 534.40681,552.28549 535.77647,557.76416 C 537.90531,566.2795 546.20887,570.66832 534.38845,573.0324 C 528.4432,574.22145 520.25082,572.62105 516.34416,571.64438 C 506.0266,569.06499 505.69765,574.87809 509.40405,578.58449 C 515.47356,584.654 517.53132,587.55642 526.06032,589.68867 C 529.70318,590.59939 541.46855,588.30065 544.10461,588.30065 C 552.75677,588.30065 554.39466,586.48221 559.37285,582.74856 C 565.52979,578.13085 555.66624,570.71381 553.82076,568.86833 C 549.14789,564.19546 549.6567,560.50716 549.6567,552.21207 C 549.6567,543.09109 543.60231,537.65053 547.10973,530.6191 C 552.93507,518.94086 561.38697,527.35772 564.92494,520.28755 C 566.80284,516.53481 573.88428,524.92502 578.80517,528.61569 C 585.40675,533.56687 592.62141,534.1038 598.23748,539.71986 C 603.22051,544.7029 614.87103,547.34263 621.83386,550.82404 C 626.79496,553.3046 629.8418,557.12377 631.55002,560.5402 C 633.62948,564.69912 631.81029,569.90944 632.93804,574.42042 C 635.0691,582.94465 631.00142,587.75205 637.10211,593.85274 C 641.58544,598.33607 646.26177,586.0811 648.20629,584.13658 C 650.80698,581.53589 649.80463,568.02706 650.98233,563.31625 C 653.12852,554.73148 657.30929,557.151 649.59431,549.43602 C 643.85464,543.69635 649.30763,542.54458 638.49013,539.71986 C 630.57314,537.65254 621.3826,531.75801 614.89375,531.39173 C 601.47709,530.63439 603.67155,525.75112 598.23748,521.67557 C 591.64991,516.73489 590.54048,514.48396 588.52132,506.40733 C 586.65257,498.93231 584.84515,495.8667 582.96923,488.36304 C 581.29584,481.66946 579.24614,476.2467 577.41715,468.93072 C 575.09737,459.65162 587.45521,467.62318 592.68539,468.93072 C 599.87383,470.72783 606.75314,474.27645 610.72968,477.25886 C 618.62176,483.17792 626.86584,483.93892 635.71408,488.36304 C 644.34391,492.67795 646.9091,497.98836 652.37035,492.5271 C 656.44394,488.45352 666.20692,489.79472 670.41464,485.58699 C 677.0631,478.93854 670.11801,473.64048 666.25058,471.70677 C 661.1913,469.17713 651.33307,475.69547 648.20629,477.25886 C 646.75348,477.98526 633.33176,470.07017 628.77397,468.93072 C 620.89738,466.96158 613.25864,466.43991 606.56561,464.76666 C 599.19224,462.92331 594.51422,455.96492 589.90935,453.66248 C 582.55654,449.98607 579.41757,447.02857 573.25308,443.94632 C 565.79394,440.21675 560.92288,430.39168 562.37798,424.57128 C 564.53018,415.96249 569.08901,414.28623 569.08901,406.46972 C 569.08901,397.65103 566.77759,393.05998 564.92494,385.64938 C 562.84664,377.33615 555.33796,375.55393 548.26868,377.32125 C 539.3606,379.54827 540.96548,380.82345 537.1645,388.42543 C 534.08904,394.57635 532.67212,396.75623 534.27392,404.2518 C 536.8499,416.30605 537.93673,414.11592 541.32856,416.18587 C 550.21926,421.61164 546.88877,423.11787 541.32856,428.67808 C 539.33853,430.66811 530.89704,431.74499 528.121,431.28231 z"
         style="fill:url(#radialGradient3225);fill-opacity:1;fill-rule:evenodd;stroke:#000000;stroke-width:1px;stroke-linecap:butt;stroke-linejoin:miter;stroke-opacity:1" />
      <path
         id="path3227"
         d="M 511.23815,426.03066 C 511.19736,427.24549 510.35098,430.72314 510.35098,433.12801 C 510.35098,435.77275 509.94953,437.79675 509.46381,440.22536 C 508.92224,442.93324 507.68947,444.1712 507.68947,446.87912 C 507.68947,449.47432 508.65779,449.09705 512.5689,449.09705 C 514.4767,449.09705 517.14509,448.68855 518.77908,449.09705 C 520.31536,449.48111 522.39737,450.4626 524.1021,451.31497 C 525.97241,452.25013 524.48211,455.49651 524.98927,457.52515 C 525.38506,459.10833 525.90835,461.20149 526.32002,462.84816 C 526.90976,465.20712 528.21918,466.64647 528.98153,468.17117 C 529.83077,469.86966 529.79049,472.91983 529.42511,474.38136 C 528.84558,476.69946 530.67346,478.48757 531.19945,480.59154 C 531.70099,482.5977 533.02835,484.24934 533.86095,485.91455 C 535.2335,488.65964 539.14167,485.87225 541.40189,488.13247 C 544.01175,490.74233 545.7875,489.80634 547.16849,492.56832 C 548.22199,494.67532 549.00465,495.03353 549.38641,496.56058 C 549.58711,497.3634 546.17545,500.9763 545.83773,502.32717 C 545.18739,504.92854 542.23001,505.9349 541.40189,506.76302 C 539.45512,508.70979 537.27581,507.784 536.07888,508.98094 C 534.40971,510.6501 529.22487,509.6856 527.20719,511.19886 C 525.32383,512.61138 524.89886,514.83794 523.65851,516.07829 C 522.09592,517.64089 522.77134,521.00078 522.77134,523.17564 C 522.77134,526.46383 520.71348,525.59021 521.88418,530.27299 C 522.76498,533.79619 521.62323,532.53657 524.98927,533.37808 C 527.28237,533.95136 529.95965,533.82167 532.5302,533.82167 C 535.2502,533.82167 538.44928,534.08158 540.95831,534.70884 C 543.20615,535.2708 545.88674,535.05377 548.05566,535.596 C 550.79702,536.28134 553.96552,536.03959 556.92734,536.03959 C 559.99123,536.03959 561.92397,536.48317 565.35545,536.48317 C 569.26162,536.48317 572.20902,535.87874 575.1143,535.15242 C 578.59869,534.28132 580.41363,533.37808 584.42958,533.37808 C 586.75631,533.37808 589.9408,531.50964 591.52693,530.71658 C 593.931,529.51454 596.98412,529.31873 599.51145,528.05507 C 601.41825,527.10167 603.22549,527.5288 604.83446,526.72432 C 606.77193,525.75558 609.37175,525.4791 611.48823,524.94998 C 614.21153,524.26915 612.68047,522.73206 610.15747,522.73206 C 608.81986,522.73206 606.21345,521.20363 604.83446,520.51413 C 602.88446,519.53913 601.27564,518.28607 599.95503,516.96546 C 598.55612,515.56655 597.83679,513.17256 596.84994,511.19886 C 595.6028,508.70457 595.79229,506.3542 595.0756,502.77076 C 594.62905,500.53802 595.39855,497.4867 595.51919,497.00416 C 595.51973,497.00198 591.14293,493.51508 591.08334,493.45549 C 589.27809,491.65024 587.98113,489.46707 586.6475,487.68889 C 585.09413,485.61773 584.71096,483.09084 582.65524,481.03512 C 581.08345,479.46333 582.75077,476.53783 582.21165,474.38136 C 581.54733,471.72404 581.79782,469.91576 583.09882,468.61476 C 584.55133,467.16225 586.42901,471.22164 588.42184,471.71985 C 590.97398,472.35789 593.33598,473.0506 595.96277,473.0506 C 597.73597,473.0506 600.28427,474.38136 601.72937,474.38136 C 602.38365,474.38136 602.86131,469.45597 603.06012,469.05834 C 603.84966,467.47927 604.54126,464.46456 604.83446,463.29175 C 605.59677,460.24249 607.37789,459.38086 603.50371,458.41232 C 600.70112,457.71167 597.85617,457.05997 595.51919,455.30723 C 593.37339,453.69788 591.40797,454.38782 590.63976,451.31497 C 590.16201,449.40399 588.13474,447.94868 587.53467,445.54837 C 587.36797,444.88159 582.16011,442.62641 581.32449,441.99969 C 579.70644,440.78616 578.42997,439.44348 576.44506,438.45102 C 574.07595,437.26646 572.61392,436.2331 569.79129,436.2331 C 567.87554,436.2331 564.62218,433.20496 562.69394,432.24084 C 560.08561,430.93667 563.3059,429.51053 560.03243,428.69216 C 557.66531,428.10038 554.13665,429.32524 551.60433,428.69216 C 549.51023,428.16864 548.42177,428.04615 545.83773,428.69216 C 542.83874,429.44191 541.87071,428.48299 539.62755,427.36141 C 536.63105,425.86316 535.31403,427.68267 533.86095,429.13575 C 532.58461,430.41209 527.56623,429.57933 525.87644,429.57933 C 523.37254,429.57933 521.62781,428.69216 518.77908,428.69216 C 515.07101,428.69216 512.60191,425.57607 508.57664,426.91783 C 508.26298,427.02238 508.28092,427.50927 508.13306,427.80499"
         style="fill:url(#radialGradient3235);fill-opacity:1;fill-rule:evenodd;stroke:#000000;stroke-width:1px;stroke-linecap:butt;stroke-linejoin:miter;stroke-opacity:1" />
      <path
         id="path3237"
         d="M 535.63529,385.66448 C 537.03232,385.86095 539.81355,384.61991 540.95831,384.33372 C 542.80153,383.87292 544.30915,389.56089 545.39415,385.22089 C 546.09313,382.42497 546.4881,385.19088 547.61207,387.43881 C 549.04086,390.29639 548.45142,390.00138 551.60433,389.21315 C 554.01078,388.61154 551.62981,385.78174 554.70942,386.55164 C 556.21893,386.92902 555.32512,390.64326 557.37093,386.55164 C 558.10117,385.09116 559.28887,390.85664 559.14527,391.43107 C 559.09039,391.65057 561.80677,395.40012 561.80677,391.43107 C 561.80677,388.70464 558.6649,396.0054 556.48376,397.64125 C 554.98751,398.76344 560.68458,397.91934 561.80677,399.41559 C 562.31484,400.09302 565.53871,408.21022 563.13753,403.40785 C 560.90087,398.93455 564.82529,400.03947 566.6862,402.52068 C 567.69773,403.86939 568.01695,405.71423 568.01695,407.40011 C 568.01695,409.59823 571.46977,404.48674 572.4528,402.52068 C 574.1362,399.15387 575.02711,404.38983 573.78355,399.41559 C 572.7556,395.30377 575.13149,399.04076 573.78355,393.64899 C 573.01619,390.57954 570.94638,392.05918 570.23488,389.21315 C 569.69219,387.04241 568.90889,384.75348 569.34771,382.55938 C 569.77586,380.41863 564.891,381.20081 563.58111,379.45429 C 561.7378,376.99654 561.33698,377.18395 559.58885,373.6877 C 557.6902,369.89039 557.92955,371.48633 558.70168,374.57487 C 559.73288,378.69965 555.20315,375.91995 552.04792,375.01845 C 549.9763,374.42656 550.13455,375.34952 549.38641,372.35694 C 548.7809,369.93492 547.12403,372.58985 544.50698,373.24411 C 543.59974,373.47092 542.73264,372.65267 541.84547,372.35694 C 541.8162,372.34718 543.96149,376.87821 540.07114,375.90562 C 537.66307,375.3036 534.70979,379.60764 534.30454,381.22863 C 533.47451,384.54873 539.54898,380.43272 540.95831,380.78505 C 544.45548,381.65934 536.44994,385.01276 535.63529,385.66448 C 534.96205,386.20307 534.74812,384.18586 534.30454,383.44655 C 533.86095,382.70725 535.19171,384.92517 535.63529,385.66448 C 536.04496,386.34726 535.04385,384.18586 534.74812,383.44655"
         style="fill:url(#radialGradient3245);fill-opacity:1;fill-rule:evenodd;stroke:#000000;stroke-width:1px;stroke-linecap:butt;stroke-linejoin:miter;stroke-opacity:1" />
      <path
         id="path3247"
         d="M 541.84547,394.09258 C 542.71318,395.23694 547.72955,397.66758 546.7249,393.64899 C 546.15925,391.38637 542.6805,393.59156 541.84547,394.09258 z"
         style="fill:url(#radialGradient3255);fill-opacity:1;fill-rule:evenodd;stroke:#000000;stroke-width:1px;stroke-linecap:butt;stroke-linejoin:miter;stroke-opacity:1" />
      <path
         id="path3257"
         d="M 534.30454,409.17445 C 535.32599,409.88026 539.21561,409.61012 540.95831,409.17445 C 542.48165,408.79361 543.78164,409.21491 545.39415,409.61803"
         style="fill:none;fill-rule:evenodd;stroke:#000000;stroke-width:1px;stroke-linecap:butt;stroke-linejoin:miter;stroke-opacity:1" />
    </g>
    <path
       style="fill:#f91c1c;fill-opacity:1;fill-rule:evenodd;stroke:#000000;stroke-width:0.1;stroke-linecap:butt;stroke-linejoin:miter;stroke-miterlimit:4;stroke-dasharray:none;stroke-opacity:1"
       d="M 652.07434,493.23112 C 650.37215,491.38787 649.30994,490.2992 647.47261,491.21787 C 646.70745,491.60045 650.1546,492.89499 650.34869,492.94351 C 652.24769,493.41826 650.38436,496.04776 652.07434,493.23112 z"
       id="path2440" />
    <path
       style="fill:#f91c1c;fill-opacity:1;fill-rule:evenodd;stroke:#000000;stroke-width:0.1;stroke-linecap:butt;stroke-linejoin:miter;stroke-miterlimit:4;stroke-dasharray:none;stroke-opacity:1"
       d="M 513.62654,502.09156 C 511.92435,500.24831 515.20329,496.58075 513.36596,497.49942 C 512.6008,497.882 510.78029,502.11024 510.97679,502.14781 C 511.73654,502.29307 512.72764,502.7339 513.62654,502.09156 z"
       id="path3212"
       sodipodi:nodetypes="cssc" />
    <path
       style="fill:#f91c1c;fill-opacity:1;fill-rule:evenodd;stroke:#000000;stroke-width:0.1;stroke-linecap:butt;stroke-linejoin:miter;stroke-miterlimit:4;stroke-dasharray:none;stroke-opacity:1"
       d="M 489.585,544.765 C 487.88281,542.92175 489.82931,539.34014 487.99198,540.25881 C 487.22682,540.64139 486.55041,545.82499 486.74183,545.76683 C 487.86716,545.42493 488.4108,545.73343 489.585,544.765 z"
       id="path3214"
       sodipodi:nodetypes="cssc" />
    <path
       style="fill:#f91c1c;fill-opacity:1;fill-rule:evenodd;stroke:#000000;stroke-width:0.1;stroke-linecap:butt;stroke-linejoin:miter;stroke-miterlimit:4;stroke-dasharray:none;stroke-opacity:1"
       d="M 495.91408,588.28012 C 494.42595,585.04549 494.28955,581.99912 491.79863,582.19426 C 491.00569,582.25638 494.68971,587.51075 494.7051,588.93468 C 494.70757,589.16243 495.37902,588.75653 495.91408,588.28012 z"
       id="path3216"
       sodipodi:nodetypes="cssc" />
    <path
       style="fill:#f91c1c;fill-opacity:1;fill-rule:evenodd;stroke:#000000;stroke-width:0.1;stroke-linecap:butt;stroke-linejoin:miter;stroke-miterlimit:4;stroke-dasharray:none;stroke-opacity:1"
       d="M 525.34562,583.88911 C 525.85192,581.43174 526.11782,579.93414 524.30069,578.97615 C 523.54394,578.57718 524.50028,582.13304 524.57393,582.31905 C 525.29453,584.13903 522.0718,584.1567 525.34562,583.88911 z"
       id="path3218"
       inkscape:transform-center-x="-0.42549621" />
    <g
       id="g3224">
      <path
         transform="translate(479.22196,480.00814)"
         d="M 9.284027,99.334648 A 1.3754114,1.5473379 0 1 1 6.5332042,99.334648 A 1.3754114,1.5473379 0 1 1 9.284027,99.334648 z"
         sodipodi:ry="1.5473379"
         sodipodi:rx="1.3754114"
         sodipodi:cy="99.334648"
         sodipodi:cx="7.9086156"
         id="path3220"
         style="fill:#f9e91c;fill-opacity:1;stroke:#000000;stroke-width:0.10000000000000001;stroke-miterlimit:4;stroke-dasharray:none;stroke-opacity:1"
         sodipodi:type="arc" />
      <path
         transform="translate(479.22196,480.00814)"
         d="M 8.3784571,99.935646 A 0.35486317,0.3732976 0 1 1 7.6687307,99.935646 A 0.35486317,0.3732976 0 1 1 8.3784571,99.935646 z"
         sodipodi:ry="0.3732976"
         sodipodi:rx="0.35486317"
         sodipodi:cy="99.935646"
         sodipodi:cx="8.0235939"
         id="path3222"
         style="fill:#15140c;fill-opacity:1;stroke:#000000;stroke-width:0.10000000000000001;stroke-miterlimit:4;stroke-dasharray:none;stroke-opacity:1"
         sodipodi:type="arc" />
    </g>
    <g
       id="g3228"
       transform="translate(34.94497,-3.2805746)">
      <path
         transform="translate(479.22196,480.00814)"
         d="M 9.284027,99.334648 A 1.3754114,1.5473379 0 1 1 6.5332042,99.334648 A 1.3754114,1.5473379 0 1 1 9.284027,99.334648 z"
         sodipodi:ry="1.5473379"
         sodipodi:rx="1.3754114"
         sodipodi:cy="99.334648"
         sodipodi:cx="7.9086156"
         id="path3230"
         style="fill:#f9e91c;fill-opacity:1;stroke:#000000;stroke-width:0.1;stroke-miterlimit:4;stroke-dasharray:none;stroke-opacity:1"
         sodipodi:type="arc" />
      <path
         transform="translate(479.22196,480.00814)"
         d="M 8.3784571,99.935646 A 0.35486317,0.3732976 0 1 1 7.6687307,99.935646 A 0.35486317,0.3732976 0 1 1 8.3784571,99.935646 z"
         sodipodi:ry="0.3732976"
         sodipodi:rx="0.35486317"
         sodipodi:cy="99.935646"
         sodipodi:cx="8.0235939"
         id="path3232"
         style="fill:#15140c;fill-opacity:1;stroke:#000000;stroke-width:0.1;stroke-miterlimit:4;stroke-dasharray:none;stroke-opacity:1"
         sodipodi:type="arc" />
    </g>
    <g
       id="g3234"
       transform="translate(-3.3068882,-42.970473)">
      <path
         transform="translate(479.22196,480.00814)"
         d="M 9.284027,99.334648 A 1.3754114,1.5473379 0 1 1 6.5332042,99.334648 A 1.3754114,1.5473379 0 1 1 9.284027,99.334648 z"
         sodipodi:ry="1.5473379"
         sodipodi:rx="1.3754114"
         sodipodi:cy="99.334648"
         sodipodi:cx="7.9086156"
         id="path3236"
         style="fill:#f9e91c;fill-opacity:1;stroke:#000000;stroke-width:0.1;stroke-miterlimit:4;stroke-dasharray:none;stroke-opacity:1"
         sodipodi:type="arc" />
      <path
         transform="translate(479.22196,480.00814)"
         d="M 8.3784571,99.935646 A 0.35486317,0.3732976 0 1 1 7.6687307,99.935646 A 0.35486317,0.3732976 0 1 1 8.3784571,99.935646 z"
         sodipodi:ry="0.3732976"
         sodipodi:rx="0.35486317"
         sodipodi:cy="99.935646"
         sodipodi:cx="8.0235939"
         id="path3238"
         style="fill:#15140c;fill-opacity:1;stroke:#000000;stroke-width:0.1;stroke-miterlimit:4;stroke-dasharray:none;stroke-opacity:1"
         sodipodi:type="arc" />
    </g>
    <g
       id="g3240"
       transform="translate(24.591084,-90.425786)">
      <path
         transform="translate(479.22196,480.00814)"
         d="M 9.284027,99.334648 A 1.3754114,1.5473379 0 1 1 6.5332042,99.334648 A 1.3754114,1.5473379 0 1 1 9.284027,99.334648 z"
         sodipodi:ry="1.5473379"
         sodipodi:rx="1.3754114"
         sodipodi:cy="99.334648"
         sodipodi:cx="7.9086156"
         id="path3242"
         style="fill:#f9e91c;fill-opacity:1;stroke:#000000;stroke-width:0.1;stroke-miterlimit:4;stroke-dasharray:none;stroke-opacity:1"
         sodipodi:type="arc" />
      <path
         transform="translate(479.22196,480.00814)"
         d="M 8.3784571,99.935646 A 0.35486317,0.3732976 0 1 1 7.6687307,99.935646 A 0.35486317,0.3732976 0 1 1 8.3784571,99.935646 z"
         sodipodi:ry="0.3732976"
         sodipodi:rx="0.35486317"
         sodipodi:cy="99.935646"
         sodipodi:cx="8.0235939"
         id="path3244"
         style="fill:#15140c;fill-opacity:1;stroke:#000000;stroke-width:0.1;stroke-miterlimit:4;stroke-dasharray:none;stroke-opacity:1"
         sodipodi:type="arc" />
    </g>
    <g
       id="g3246"
       transform="translate(158.904,-95.890338)">
      <path
         transform="translate(479.22196,480.00814)"
         d="M 9.284027,99.334648 A 1.3754114,1.5473379 0 1 1 6.5332042,99.334648 A 1.3754114,1.5473379 0 1 1 9.284027,99.334648 z"
         sodipodi:ry="1.5473379"
         sodipodi:rx="1.3754114"
         sodipodi:cy="99.334648"
         sodipodi:cx="7.9086156"
         id="path3248"
         style="fill:#f9e91c;fill-opacity:1;stroke:#000000;stroke-width:0.1;stroke-miterlimit:4;stroke-dasharray:none;stroke-opacity:1"
         sodipodi:type="arc" />
      <path
         transform="translate(479.22196,480.00814)"
         d="M 8.3784571,99.935646 A 0.35486317,0.3732976 0 1 1 7.6687307,99.935646 A 0.35486317,0.3732976 0 1 1 8.3784571,99.935646 z"
         sodipodi:ry="0.3732976"
         sodipodi:rx="0.35486317"
         sodipodi:cy="99.935646"
         sodipodi:cx="8.0235939"
         id="path3250"
         style="fill:#15140c;fill-opacity:1;stroke:#000000;stroke-width:0.1;stroke-miterlimit:4;stroke-dasharray:none;stroke-opacity:1"
         sodipodi:type="arc" />
    </g>
    <g
       id="g3252"
       transform="translate(166.0942,-96.177945)">
      <path
         transform="translate(479.22196,480.00814)"
         d="M 9.284027,99.334648 A 1.3754114,1.5473379 0 1 1 6.5332042,99.334648 A 1.3754114,1.5473379 0 1 1 9.284027,99.334648 z"
         sodipodi:ry="1.5473379"
         sodipodi:rx="1.3754114"
         sodipodi:cy="99.334648"
         sodipodi:cx="7.9086156"
         id="path3254"
         style="fill:#f9e91c;fill-opacity:1;stroke:#000000;stroke-width:0.1;stroke-miterlimit:4;stroke-dasharray:none;stroke-opacity:1"
         sodipodi:type="arc" />
      <path
         transform="translate(479.22196,480.00814)"
         d="M 8.3784571,99.935646 A 0.35486317,0.3732976 0 1 1 7.6687307,99.935646 A 0.35486317,0.3732976 0 1 1 8.3784571,99.935646 z"
         sodipodi:ry="0.3732976"
         sodipodi:rx="0.35486317"
         sodipodi:cy="99.935646"
         sodipodi:cx="8.0235939"
         id="path3256"
         style="fill:#15140c;fill-opacity:1;stroke:#000000;stroke-width:0.1;stroke-miterlimit:4;stroke-dasharray:none;stroke-opacity:1"
         sodipodi:type="arc" />
    </g>
    <g
       id="g3258"
       transform="translate(18.838925,-88.412531)">
      <path
         transform="translate(479.22196,480.00814)"
         d="M 9.284027,99.334648 A 1.3754114,1.5473379 0 1 1 6.5332042,99.334648 A 1.3754114,1.5473379 0 1 1 9.284027,99.334648 z"
         sodipodi:ry="1.5473379"
         sodipodi:rx="1.3754114"
         sodipodi:cy="99.334648"
         sodipodi:cx="7.9086156"
         id="path3260"
         style="fill:#f9e91c;fill-opacity:1;stroke:#000000;stroke-width:0.1;stroke-miterlimit:4;stroke-dasharray:none;stroke-opacity:1"
         sodipodi:type="arc" />
      <path
         transform="translate(479.22196,480.00814)"
         d="M 8.3784571,99.935646 A 0.35486317,0.3732976 0 1 1 7.6687307,99.935646 A 0.35486317,0.3732976 0 1 1 8.3784571,99.935646 z"
         sodipodi:ry="0.3732976"
         sodipodi:rx="0.35486317"
         sodipodi:cy="99.935646"
         sodipodi:cx="8.0235939"
         id="path3262"
         style="fill:#15140c;fill-opacity:1;stroke:#000000;stroke-width:0.1;stroke-miterlimit:4;stroke-dasharray:none;stroke-opacity:1"
         sodipodi:type="arc" />
    </g>
  </g>
</svg>
